<svg width="322" height="169" viewBox="0 0 322 169" fill="none" xmlns="http://www.w3.org/2000/svg">
<path d="M68.3438 88.7891H25.3828V134H11.8828V31.625H75.3047V42.7344H25.3828V77.75H68.3438V88.7891ZM226.364 107.281H183.473L173.841 134H159.919L199.012 31.625H210.825L249.989 134H236.137L226.364 107.281ZM187.552 96.1719H222.356L204.919 48.2891L187.552 96.1719ZM318.164 42.7344H285.258V134H271.828V42.7344H238.992V31.625H318.164V42.7344Z" fill="black"/>
<rect x="89" y="32" width="16" height="102" fill="black"/>
<rect x="108" y="134" width="12" height="45" transform="rotate(-90 108 134)" fill="black"/>
<path d="M103 126.515L90.2031 126.515L90.2031 122.331C90.2031 120.942 90.4902 119.899 91.0645 119.202C91.6387 118.499 92.4883 118.147 93.6133 118.147C94.2109 118.147 94.7412 118.317 95.2041 118.657C95.6611 118.997 96.0156 119.46 96.2676 120.046C96.4609 119.354 96.8301 118.81 97.375 118.411C97.9141 118.007 98.5586 117.805 99.3086 117.805C100.457 117.805 101.359 118.177 102.016 118.921C102.672 119.665 103 120.717 103 122.076L103 126.515ZM97.0146 124.827L101.62 124.827L101.62 122.041C101.62 121.256 101.418 120.638 101.014 120.187C100.604 119.729 100.041 119.501 99.3262 119.501C97.7852 119.501 97.0146 120.339 97.0146 122.015L97.0146 124.827ZM95.6611 124.827L95.6611 122.278C95.6611 121.54 95.4766 120.951 95.1074 120.512C94.7383 120.066 94.2373 119.844 93.6045 119.844C92.9014 119.844 92.3916 120.049 92.0752 120.459C91.7529 120.869 91.5918 121.493 91.5918 122.331L91.5918 124.827L95.6611 124.827ZM101.62 99.8335L101.62 93.7691L103 93.7691L103 101.53L90.2031 101.53L90.2031 99.8335L101.62 99.8335ZM97.0146 68.8106C98.2686 68.8106 99.3643 69.0215 100.302 69.4434C101.233 69.8653 101.945 70.4629 102.437 71.2364C102.93 72.0098 103.176 72.9121 103.176 73.9434C103.176 74.9512 102.93 75.8448 102.437 76.6241C101.939 77.4034 101.233 78.0098 100.319 78.4434C99.3994 78.8711 98.3359 79.0909 97.1289 79.1026L96.2061 79.1026C94.9756 79.1026 93.8887 78.8887 92.9453 78.461C92.002 78.0332 91.2812 77.4297 90.7832 76.6504C90.2793 75.8653 90.0273 74.9688 90.0273 73.961C90.0273 72.9356 90.2764 72.0332 90.7744 71.2539C91.2666 70.4688 91.9844 69.8653 92.9277 69.4434C93.8652 69.0215 94.958 68.8106 96.2061 68.8106L97.0146 68.8106ZM96.1885 70.4893C94.6709 70.4893 93.5078 70.794 92.6992 71.4034C91.8848 72.0127 91.4775 72.8653 91.4775 73.961C91.4775 75.0274 91.8848 75.8682 92.6992 76.4834C93.5078 77.0928 94.6328 77.4063 96.0742 77.4239L97.0146 77.4239C98.4853 77.4239 99.6426 77.1162 100.486 76.501C101.324 75.8799 101.743 75.0274 101.743 73.9434C101.743 72.8536 101.348 72.0098 100.557 71.4121C99.7598 70.8145 98.6201 70.5069 97.1377 70.4893L96.1885 70.4893ZM101.321 43.0611C101.942 43.4947 102.408 44.1011 102.719 44.8804C103.023 45.6539 103.176 46.5562 103.176 47.5875C103.176 48.6304 102.933 49.5562 102.446 50.3648C101.954 51.1734 101.257 51.8004 100.354 52.2457C99.4521 52.6851 98.4062 52.9107 97.2168 52.9224L96.1006 52.9224C94.1728 52.9224 92.6787 52.4742 91.6182 51.5777C90.5576 50.6754 90.0273 49.4097 90.0273 47.7808C90.0273 46.4449 90.3701 45.3697 91.0557 44.5552C91.7353 43.7408 92.7021 43.2427 93.9561 43.0611L93.9561 44.7486C92.2627 45.065 91.416 46.0728 91.416 47.772C91.416 48.9029 91.8144 49.7613 92.6113 50.3472C93.4023 50.9273 94.5508 51.2203 96.0566 51.2261L97.1025 51.2261C98.5381 51.2261 99.6807 50.898 100.53 50.2418C101.374 49.5855 101.796 48.6978 101.796 47.5787C101.796 46.9459 101.726 46.3922 101.585 45.9175C101.444 45.4429 101.207 45.0504 100.873 44.7398L97.999 44.7398L97.999 47.7017L96.6279 47.7017L96.6279 43.0611L101.321 43.0611Z" fill="white"/>
</svg>
